# xmcd
#
# Track frame offsets:
# 150
# 13426
# 23738
# 35003
#
# Disc length: 680 seconds
#
#
# Revision: 0
# Processed by: cddbd v1.5.1PL2 Copyright (c) Steve Scherf et al.
# Submitted via: FreeRIP 2.945 
#
DISCID=2d02a604
DTITLE=Mapocho Delta Blues - Demo-Mapocho Delta Blues
DYEAR=2006
DGENRE=Blues
TTITLE0=Hoochie Coochie Man
TTITLE1=Life By The Drop
TTITLE2=From Four Till' Late
TTITLE3=Walkin' Blues
EXTD=
EXTT0=
EXTT1=
EXTT2=
EXTT3=
PLAYORDER=
